<svg width="16" height="14" viewBox="0 0 16 14" fill="none" xmlns="http://www.w3.org/2000/svg">
<path d="M1.76475 2.29112C1.73475 1.4245 2.41013 0.625 3.32325 0.625H12.678C13.5911 0.625 14.2665 1.4245 14.2361 2.29112C14.2072 3.124 14.2447 4.2025 14.5162 5.08225C14.7885 5.96462 15.2479 6.52225 16.0001 6.59387V7.4065C15.2479 7.47812 14.7889 8.03575 14.5162 8.91812C14.2447 9.7975 14.2072 10.8764 14.2361 11.7092C14.2661 12.5755 13.5907 13.375 12.678 13.375H3.32325C2.4105 13.375 1.73475 12.5755 1.76512 11.7089C1.794 10.876 1.7565 9.7975 1.485 8.91775C1.21275 8.03537 0.75225 7.47775 0 7.40612V6.5935C0.75225 6.52187 1.21237 5.96425 1.485 5.08187C1.75612 4.2025 1.794 3.124 1.76475 2.29112Z" fill="#7C4DFF"/>
</svg>
