<svg width="18" height="18" viewBox="0 0 18 18" fill="none" xmlns="http://www.w3.org/2000/svg">
<path fill-rule="evenodd" clip-rule="evenodd" d="M16.5 9C16.5 13.1419 13.1419 16.5 9 16.5C4.85812 16.5 1.5 13.1419 1.5 9C1.5 4.85812 4.85812 1.5 9 1.5C13.1419 1.5 16.5 4.85812 16.5 9Z" fill="url(#paint0_linear_13_167)"/>
<path fill-rule="evenodd" clip-rule="evenodd" d="M10.9476 10.1107C10.6345 10.4539 10.195 10.6275 9.98908 10.6275C9.75096 10.6275 9.62083 10.4816 9.5942 10.2622C9.5852 10.1782 9.5882 10.0935 9.6032 10.0099C9.68195 9.51861 9.8627 9.21336 9.85145 9.12036C9.84808 9.09374 9.83308 9.08061 9.81358 9.08061C9.66133 9.08061 9.12733 9.63186 9.04633 9.99674L8.98333 10.2889C8.94208 10.4947 8.74033 10.6271 8.60158 10.6271C8.5352 10.6271 8.48495 10.5941 8.47633 10.521C8.4737 10.4876 8.47633 10.4542 8.4842 10.4212L8.51383 10.2675C8.22583 10.4827 7.91533 10.6282 7.76983 10.6282C7.57108 10.6282 7.4597 10.5221 7.41996 10.3624C7.2887 10.5352 7.11508 10.6282 6.93021 10.6282C6.69396 10.6282 6.46633 10.4719 6.3572 10.2405C6.20158 10.4152 6.01708 10.5862 5.7962 10.7276C5.47033 10.9339 5.10771 11.0996 4.67796 11.0996C4.28121 11.0996 3.94446 10.8874 3.75808 10.7149C3.48171 10.4561 3.33583 10.0706 3.29271 9.71886C3.15696 8.60999 3.83196 7.15611 4.87783 6.51899C5.11783 6.37274 5.3867 6.29999 5.63083 6.29999C6.13333 6.29999 6.50833 6.65924 6.56083 7.08899C6.60808 7.47599 6.45358 7.81049 6.02421 8.02686C5.80521 8.13786 5.69646 8.13261 5.66233 8.07974C5.63946 8.04449 5.65258 7.98449 5.69646 7.94811C6.09995 7.61099 6.10745 7.33424 6.0602 6.94424C6.02945 6.69336 5.86445 6.53249 5.67921 6.53249C4.88608 6.53249 3.74833 8.31186 3.90658 9.60636C3.96846 10.1111 4.27783 10.6954 4.91233 10.6954C5.12383 10.6954 5.34808 10.6357 5.54758 10.536C5.89558 10.3582 6.09245 10.2172 6.29008 9.98699C6.24133 9.38849 6.75508 8.63699 7.51933 8.63699C7.85008 8.63699 8.12383 8.76974 8.15608 9.03524C8.19658 9.36711 7.91383 9.43349 7.80808 9.43349C7.71546 9.43349 7.56695 9.40686 7.55645 9.32061C7.5452 9.22761 7.7567 9.28086 7.73045 9.06824C7.71433 8.93549 7.57633 8.88899 7.44433 8.88899C6.96845 8.88899 6.70558 9.55274 6.7562 9.96486C6.77908 10.1509 6.87433 10.3365 7.04645 10.3365C7.1852 10.3365 7.38545 10.1374 7.46233 9.84524C7.51108 9.64611 7.69933 9.51336 7.83845 9.51336C7.9112 9.51336 7.96145 9.54636 7.97045 9.61949C7.97345 9.64611 7.9712 9.67949 7.96258 9.71924C7.94683 9.80549 7.88046 10.0927 7.88383 10.152C7.88608 10.2037 7.91608 10.275 8.00608 10.275C8.07733 10.275 8.33983 10.1332 8.58283 9.91574C8.65896 9.52161 8.75308 9.03411 8.76058 8.99549C8.7902 8.83574 8.84758 8.67111 9.17158 8.67111C9.23795 8.67111 9.28821 8.70411 9.29796 8.78399C9.30095 8.81024 9.29871 8.84399 9.29008 8.88374L9.19933 9.29361C9.48358 8.91486 9.92533 8.63661 10.1901 8.63661C10.3026 8.63661 10.3892 8.69586 10.4038 8.81586C10.4121 8.88261 10.3926 8.99511 10.3487 9.12111C10.2546 9.37986 10.1488 9.76874 10.0787 10.1036C10.0637 10.1749 10.0885 10.2821 10.2186 10.2821C10.3225 10.2821 10.6558 10.155 10.9255 9.79911C10.9236 9.74886 10.9228 9.69786 10.9228 9.64611C10.9228 9.36711 10.9427 9.14136 10.9956 8.97599C11.0485 8.80311 11.2667 8.63774 11.4118 8.63774C11.4846 8.63774 11.5375 8.67749 11.5375 8.75699C11.5375 8.78361 11.5307 8.81699 11.5176 8.84999C11.4186 9.14211 11.3657 9.41474 11.3657 9.68661C11.3657 9.83924 11.3987 10.0849 11.4321 10.2109C11.4388 10.2375 11.4448 10.2641 11.4715 10.2641C11.5176 10.2641 11.8285 9.95886 12.0531 9.58686C11.8543 9.46049 11.7422 9.22836 11.7422 8.94261C11.7422 8.46486 12.0265 8.21886 12.304 8.21886C12.5222 8.21886 12.7202 8.37824 12.7202 8.69661C12.7202 8.89611 12.6407 9.12186 12.529 9.34086C12.529 9.34086 12.5751 9.34761 12.595 9.34761C12.7667 9.34761 12.8991 9.26774 12.9722 9.18149C13.0052 9.14399 13.036 9.11474 13.0652 9.09749C13.2865 8.83011 13.6108 8.63699 13.9915 8.63699C14.3155 8.63699 14.5952 8.76336 14.6275 9.02886C14.6687 9.36711 14.3796 9.43386 14.2802 9.43386C14.1812 9.43386 14.0323 9.40724 14.0218 9.32099C14.0113 9.23474 14.2285 9.28124 14.2033 9.07574C14.1872 8.94299 14.0485 8.88974 13.9161 8.88974C13.4728 8.88974 13.1683 9.48074 13.2268 9.95849C13.2501 10.1512 13.339 10.3372 13.5111 10.3372C13.6498 10.3372 13.8572 10.1377 13.9337 9.84599C13.9828 9.65324 14.1707 9.51411 14.3095 9.51411C14.3755 9.51411 14.4325 9.54711 14.4422 9.62699C14.4471 9.66674 14.431 9.75336 14.3571 10.065C14.3267 10.1977 14.3207 10.3106 14.3323 10.4036C14.356 10.5964 14.4441 10.7224 14.5258 10.7955C14.5555 10.8217 14.5731 10.8547 14.5753 10.8754C14.5817 10.9286 14.5412 10.9751 14.4752 10.9751C14.4553 10.9751 14.4291 10.9751 14.4073 10.962C14.0668 10.8225 13.9255 10.5904 13.8857 10.371C13.7545 10.5367 13.5805 10.6297 13.402 10.6297C13.0978 10.6297 12.8008 10.3639 12.7588 10.0189C12.7416 9.87711 12.7585 9.72449 12.805 9.57486C12.6816 9.65099 12.5488 9.69336 12.4296 9.69336C12.3898 9.69336 12.3568 9.69336 12.3175 9.68661C12.0201 10.1179 11.7092 10.4167 11.4711 10.5499C11.3721 10.6031 11.2798 10.6297 11.2135 10.6297C11.1602 10.6297 11.101 10.6166 11.0747 10.5701C11.0125 10.4662 10.9716 10.3027 10.9476 10.1107ZM12.025 8.69661C12.025 8.88261 12.1172 9.07536 12.2365 9.20136C12.283 9.07499 12.3092 8.94899 12.3092 8.82261C12.3092 8.58336 12.2166 8.47724 12.1438 8.47724C12.058 8.47724 12.025 8.59724 12.025 8.69661Z" fill="white"/>
<defs>
<linearGradient id="paint0_linear_13_167" x1="14.3486" y1="14.8987" x2="3.80625" y2="3.27187" gradientUnits="userSpaceOnUse">
<stop stop-color="#823AF3"/>
<stop offset="0.36" stop-color="#4B66E1"/>
<stop offset="0.906" stop-color="#01F1C4"/>
</linearGradient>
</defs>
</svg>
