<svg width="18" height="18" viewBox="0 0 18 18" fill="none" xmlns="http://www.w3.org/2000/svg">
<path d="M2.6968 2.691L3.68192 13.8547C3.7228 14.3186 4.04567 14.7098 4.49342 14.8376L8.48455 15.978C8.8213 16.0744 9.17792 16.0744 9.51467 15.978L13.5058 14.8376C13.9535 14.7098 14.2764 14.319 14.3173 13.8547L15.3024 2.691C15.3414 2.25225 14.9961 1.875 14.5558 1.875H3.4438C3.00355 1.875 2.65817 2.25225 2.6968 2.691Z" fill="url(#paint0_linear_13_141)"/>
<path d="M9 3V14.9625L12.7035 13.9042C13.0024 13.8187 13.2176 13.5577 13.2446 13.2484L14.1019 3.40762C14.121 3.18825 13.9485 3 13.7284 3H9Z" fill="#35C1F1"/>
<path d="M12.4125 4.875H9V6.375H10.8375L10.725 7.875H9V9.375H10.65L10.5375 11.0625L9 11.5875V13.1625L11.9625 12.1875L12.225 7.875L12.4125 4.875Z" fill="white"/>
<path d="M8.9998 4.875V6.375H5.6623L5.5498 4.875H8.9998ZM7.2748 7.875L7.3498 9.375H8.9998V7.875H7.2748ZM7.4248 10.125H5.9248L6.0373 12.1875L8.9998 13.1625V11.5875L7.4623 11.0625L7.4248 10.125Z" fill="#D6E0E9"/>
<path opacity="0.05" d="M12.4123 4.875L12.2248 7.875L11.9623 12.1875L8.99976 13.1625L6.03726 12.1875L5.92476 10.125H7.42476L7.46226 11.0625L8.99976 11.5875L10.5373 11.0625L10.6498 9.375H8.99976H7.34976L7.27476 7.875H8.99976H10.7248L10.8373 6.375H8.99976H5.66226L5.54976 4.875H8.99976H12.4123ZM12.8113 4.5H12.4123H8.99976H5.54976H5.14551L5.17588 4.90312L5.28838 6.40313L5.31426 6.75H5.66226H8.99976H10.433L10.3768 7.5H8.99976H7.27476H6.88063L6.90013 7.89375L6.97513 9.39375L6.99313 9.75H5.92476H5.52876L5.55051 10.1453L5.66301 12.2078L5.67688 12.4635L5.92026 12.5438L8.88276 13.5187L8.99976 13.5574L9.11713 13.5187L12.0796 12.5438L12.3211 12.4642L12.3365 12.2104L12.599 7.89788L12.7865 4.89862L12.8113 4.5ZM7.78513 9.75H8.99976H10.2489L10.1795 10.7884L8.99976 11.1911L7.82676 10.7906L7.79938 10.11L7.78513 9.75Z" fill="black"/>
<path opacity="0.07" d="M12.4123 4.875L12.2248 7.875L11.9623 12.1875L8.99978 13.1625L6.03728 12.1875L5.92478 10.125H7.42478L7.46228 11.0625L8.99978 11.5875L10.5373 11.0625L10.6498 9.375H8.99978H7.34978L7.27478 7.875H8.99978H10.7248L10.8373 6.375H8.99978H5.66228L5.54978 4.875H8.99978H12.4123ZM12.6118 4.6875H12.4123H8.99978H5.54978H5.34766L5.36266 4.88887L5.47516 6.38888L5.48828 6.5625H5.66228H8.99978H10.6352L10.5508 7.6875H8.99978H7.27478H7.07753L7.08728 7.88437L7.16228 9.38437L7.17128 9.5625H7.34978H8.99978H10.4495L10.3588 10.9253L8.99978 11.3895L7.64453 10.9268L7.61228 10.1175L7.60478 9.9375H7.42478H5.92478H5.72678L5.73766 10.1351L5.85016 12.1976L5.85728 12.3255L5.97878 12.3656L8.94128 13.3406L8.99978 13.3597L9.05828 13.3406L12.0208 12.3656L12.1415 12.3259L12.1494 12.1987L12.4119 7.88625L12.5994 4.88663L12.6118 4.6875Z" fill="black"/>
<defs>
<linearGradient id="paint0_linear_13_141" x1="6.12355" y1="-1.0305" x2="12.1097" y2="15.4159" gradientUnits="userSpaceOnUse">
<stop stop-color="#2AA4F4"/>
<stop offset="1" stop-color="#007AD9"/>
</linearGradient>
</defs>
</svg>
