<svg width="18" height="18" viewBox="0 0 18 18" fill="none" xmlns="http://www.w3.org/2000/svg">
<path d="M9.75 6.375H6.75C5.30025 6.375 4.125 5.19975 4.125 3.75C4.125 2.30025 5.30025 1.125 6.75 1.125H9.75V6.375Z" fill="#E64A19"/>
<path d="M9.375 11.625H6.75C5.30025 11.625 4.125 10.4497 4.125 9C4.125 7.55025 5.30025 6.375 6.75 6.375H9.375V11.625Z" fill="#7C4DFF"/>
<path d="M6.75 16.875C5.30025 16.875 4.125 15.6997 4.125 14.25C4.125 12.8003 5.30025 11.625 6.75 11.625H9.375V14.25C9.375 15.6997 8.19975 16.875 6.75 16.875Z" fill="#66BB6A"/>
<path d="M12 6.375H9.375V1.125H12C13.4497 1.125 14.625 2.30025 14.625 3.75C14.625 5.19975 13.4497 6.375 12 6.375Z" fill="#FF7043"/>
<path d="M12 11.625C13.4497 11.625 14.625 10.4497 14.625 9C14.625 7.55025 13.4497 6.375 12 6.375C10.5503 6.375 9.375 7.55025 9.375 9C9.375 10.4497 10.5503 11.625 12 11.625Z" fill="#29B6F6"/>
</svg>
