<svg width="18" height="18" viewBox="0 0 18 18" fill="none" xmlns="http://www.w3.org/2000/svg">
<path d="M3 13.875L8.71275 3.1635C8.83312 2.93775 9.15863 2.94187 9.273 3.171L11.25 7.125L3 13.875Z" fill="#FF8F00"/>
<path d="M3 13.872L5.07975 1.04737C5.13412 0.711749 5.58487 0.638999 5.74237 0.940499L9.75 8.622L3 13.872Z" fill="#FFA000"/>
<path d="M3.00293 13.8698L3.07793 13.8109L9.6513 8.433L7.7973 4.8795L3.00293 13.8698Z" fill="#FF6F00"/>
<path d="M3 13.875L12.9998 4.23263C13.2094 4.0305 13.5592 4.14975 13.602 4.43775L15 13.875L9.375 17.1536C9.14663 17.2819 8.868 17.2819 8.63962 17.1536L3 13.875Z" fill="#FFC400"/>
</svg>
