<svg width="18" height="18" viewBox="0 0 18 18" fill="none" xmlns="http://www.w3.org/2000/svg">
<path d="M7.03349 15.752C7.03264 15.6485 7.0318 15.2002 7.03096 14.7805L7.03011 14.3446C5.13758 14.6019 4.67943 13.2815 4.67436 13.2674C4.41168 12.6014 4.05252 12.411 4.03705 12.4031L4.00218 12.3829C3.87196 12.294 3.52658 12.0575 3.62474 11.7464C3.71333 11.466 4.05674 11.437 4.21283 11.4421C5.0774 11.5026 5.51502 12.2797 5.53302 12.3126C5.9743 13.0688 6.64789 12.9907 7.08243 12.8312C7.12293 12.6377 7.18565 12.4599 7.26777 12.303C5.8739 12.0558 4.29468 11.3144 4.29468 8.6175C4.29468 7.87697 4.5253 7.2225 4.98121 6.66872C4.8794 6.32954 4.76352 5.63766 5.10664 4.76607L5.15558 4.64175L5.28271 4.60125C5.39971 4.56272 6.03871 4.42575 7.35243 5.28554C7.89468 5.1466 8.46871 5.07488 9.06074 5.07207C9.65558 5.07488 10.2302 5.1466 10.7736 5.28554C12.0861 4.42547 12.7237 4.56413 12.841 4.60125L12.9679 4.64204L13.0168 4.76579C13.3613 5.6371 13.2455 6.32925 13.1436 6.66872C13.5987 7.22082 13.8293 7.87557 13.8293 8.6175C13.8293 11.315 12.2484 12.0541 10.8515 12.2982C11.0098 12.5978 11.0956 12.9738 11.0956 13.3889C11.0956 13.8623 11.0936 15.415 11.0914 15.752L10.5289 15.748C10.5311 15.4117 10.5331 13.8614 10.5331 13.3886C10.5331 12.7018 10.2679 12.3981 10.1534 12.2991L9.66683 11.878L10.3064 11.8069C11.7703 11.6443 13.2666 11.1378 13.2666 8.61722C13.2666 7.96191 13.048 7.39069 12.6169 6.9196L12.4959 6.78769L12.564 6.6226C12.6107 6.50982 12.8154 5.93579 12.5519 5.1345C12.3387 5.14716 11.8296 5.24757 10.9814 5.82272L10.8734 5.89557L10.7482 5.86097C10.2243 5.71529 9.64068 5.6371 9.06046 5.63429C8.48333 5.6371 7.90058 5.71529 7.37746 5.86097L7.2523 5.89557L7.14458 5.82272C6.29549 5.24785 5.7853 5.1466 5.57127 5.13394C5.3083 5.93579 5.51333 6.50982 5.56002 6.6226L5.62808 6.78769L5.50743 6.9196C5.07543 7.39238 4.85661 7.9636 4.85661 8.61722C4.85661 11.1367 6.35005 11.6463 7.81086 11.8125L8.44424 11.8845L7.96386 12.3036C7.85924 12.395 7.67418 12.6163 7.61118 13.0705L7.59008 13.2249L7.44777 13.2888C7.07624 13.4553 5.80555 13.8968 5.04365 12.5899C5.03943 12.5828 4.89065 12.3241 4.62121 12.152C4.8029 12.3317 5.02424 12.6225 5.20283 13.0764C5.2214 13.1299 5.58449 14.0951 7.25033 13.7343L7.58952 13.6606L7.5929 14.7794C7.59374 15.1976 7.59458 15.6445 7.59543 15.748L7.03349 15.752Z" fill="url(#paint0_linear_13_181)"/>
<path d="M9 16.3125C4.96772 16.3125 1.6875 13.0323 1.6875 9C1.6875 4.96772 4.96772 1.6875 9 1.6875C13.0323 1.6875 16.3125 4.96772 16.3125 9C16.3125 13.0323 13.0323 16.3125 9 16.3125ZM9 2.25C5.27822 2.25 2.25 5.27822 2.25 9C2.25 12.7218 5.27822 15.75 9 15.75C12.7218 15.75 15.75 12.7218 15.75 9C15.75 5.27822 12.7218 2.25 9 2.25Z" fill="url(#paint1_linear_13_181)"/>
<defs>
<linearGradient id="paint0_linear_13_181" x1="8.71846" y1="4.5" x2="8.71846" y2="15.5649" gradientUnits="userSpaceOnUse">
<stop stop-color="#6DC7FF"/>
<stop offset="1" stop-color="#E6ABFF"/>
</linearGradient>
<linearGradient id="paint1_linear_13_181" x1="9" y1="1.40625" x2="9" y2="16.6407" gradientUnits="userSpaceOnUse">
<stop stop-color="#1A6DFF"/>
<stop offset="1" stop-color="#C822FF"/>
</linearGradient>
</defs>
</svg>
