<svg width="18" height="18" viewBox="0 0 18 18" fill="none" xmlns="http://www.w3.org/2000/svg">
<path d="M8.9998 1.8C5.0236 1.8 1.7998 5.0238 1.7998 9C1.7998 12.3738 4.123 15.1968 7.255 15.978C7.2214 15.8808 7.1998 15.768 7.1998 15.6282V14.3976C6.9076 14.3976 6.418 14.3976 6.295 14.3976C5.8024 14.3976 5.3644 14.1858 5.152 13.7922C4.9162 13.3548 4.8754 12.6858 4.291 12.2766C4.1176 12.1404 4.2496 11.985 4.4494 12.006C4.8184 12.1104 5.1244 12.3636 5.4124 12.7392C5.6992 13.1154 5.8342 13.2006 6.37 13.2006C6.6298 13.2006 7.0186 13.1856 7.3846 13.128C7.5814 12.6282 7.9216 12.168 8.3374 11.9508C5.9398 11.7042 4.7956 10.5114 4.7956 8.892C4.7956 8.1948 5.0926 7.5204 5.5972 6.9522C5.4316 6.3882 5.2234 5.238 5.6608 4.8C6.7396 4.8 7.3918 5.4996 7.5484 5.6886C8.086 5.5044 8.6764 5.4 9.2968 5.4C9.9184 5.4 10.5112 5.5044 11.05 5.6898C11.2048 5.502 11.8576 4.8 12.9388 4.8C13.378 5.2386 13.1674 6.3936 13 6.9564C13.5016 7.5234 13.7968 8.196 13.7968 8.892C13.7968 10.5102 12.6544 11.7024 10.2604 11.9502C10.9192 12.294 11.3998 13.26 11.3998 13.9878V15.6282C11.3998 15.6906 11.386 15.7356 11.3788 15.789C14.1844 14.8056 16.1998 12.1416 16.1998 9C16.1998 5.0238 12.976 1.8 8.9998 1.8Z" fill="black"/>
</svg>
