<svg width="18" height="18" viewBox="0 0 18 18" fill="none" xmlns="http://www.w3.org/2000/svg">
<path d="M15.375 1.875H2.625L3.75 14.625L9 16.125L14.25 14.625L15.375 1.875Z" fill="#E65100"/>
<path d="M9 3V14.9625L13.2 13.7625L14.1375 3H9Z" fill="#FF6D00"/>
<path d="M9 9.375V7.875H12.225L11.9625 12.1875L9 13.1625V11.5875L10.5375 11.0625L10.65 9.375H9ZM12.3375 6.375L12.45 4.875H9V6.375H12.3375Z" fill="white"/>
<path d="M8.9999 11.5875V13.1625L6.0374 12.1875L5.8874 10.125H7.3874L7.4624 11.0625L8.9999 11.5875ZM7.1624 6.375H8.9999V4.875H5.5874L5.8499 9.375H8.9999V7.875H7.2749L7.1624 6.375Z" fill="#EEEEEE"/>
</svg>
