<svg width="18" height="18" viewBox="0 0 18 18" fill="none" xmlns="http://www.w3.org/2000/svg">
<path d="M2.25 15.75V2.25H15.75V15.75H2.25Z" fill="#FFD600"/>
<path d="M11.0769 12.3551C11.3364 12.7766 11.6184 13.1805 12.2158 13.1805C12.7175 13.1805 12.9808 12.9311 12.9808 12.5861C12.9808 12.1732 12.7085 12.0266 12.1565 11.7863L11.8539 11.6573C10.9805 11.2868 10.3996 10.8225 10.3996 9.84188C10.3996 8.93813 11.0915 8.25037 12.1726 8.25037C12.9425 8.25037 13.4956 8.517 13.8946 9.21525L12.9519 9.81787C12.7445 9.44737 12.5202 9.3015 12.1726 9.3015C11.8179 9.3015 11.5933 9.52537 11.5933 9.81787C11.5933 10.1794 11.8183 10.3256 12.3376 10.5495L12.6403 10.6785C13.6696 11.1169 14.2501 11.5646 14.2501 12.5711C14.2501 13.6556 13.3936 14.25 12.2439 14.25C11.1193 14.25 10.4806 13.6856 10.1251 12.987L11.0769 12.3551ZM6.73212 12.3859C6.92187 12.7256 7.21025 12.987 7.625 12.987C8.02175 12.987 8.25012 12.8303 8.25012 12.2209V8.25H9.5V12.4129C9.5 13.6755 8.76762 14.25 7.69812 14.25C6.73175 14.25 6.03425 13.5953 5.75 12.987L6.73212 12.3859Z" fill="#000001"/>
</svg>
