<svg width="18" height="18" viewBox="0 0 18 18" fill="none" xmlns="http://www.w3.org/2000/svg">
<path d="M9.00023 10.26C9.69611 10.26 10.2602 9.69588 10.2602 9.00001C10.2602 8.30413 9.69611 7.74001 9.00023 7.74001C8.30436 7.74001 7.74023 8.30413 7.74023 9.00001C7.74023 9.69588 8.30436 10.26 9.00023 10.26Z" fill="#39C1D7"/>
<path d="M9.00006 10.44C8.20608 10.44 7.56006 9.79398 7.56006 9C7.56006 8.20602 8.20608 7.56 9.00006 7.56C9.79404 7.56 10.4401 8.20602 10.4401 9C10.4401 9.79398 9.79404 10.44 9.00006 10.44ZM9.00006 7.92C8.40444 7.92 7.92006 8.40438 7.92006 9C7.92006 9.59562 8.40444 10.08 9.00006 10.08C9.59568 10.08 10.0801 9.59562 10.0801 9C10.0801 8.40438 9.59568 7.92 9.00006 7.92Z" fill="#1F212B"/>
<path d="M15.9298 9C15.9298 8.03232 14.7645 7.19478 12.9566 6.69636C13.4213 4.87908 13.2782 3.45006 12.4477 2.96514C12.1201 2.7738 11.7227 2.73888 11.2666 2.86092C10.5793 3.04488 9.79182 3.58272 8.99982 4.37274C8.20782 3.58272 7.42032 3.04506 6.73308 2.86092C6.27696 2.7387 5.87952 2.7738 5.55192 2.96514C4.7214 3.45006 4.5783 4.8789 5.04306 6.69636C3.23514 7.19478 2.06982 8.03232 2.06982 9C2.06982 9.96768 3.23514 10.8052 5.04306 11.3038C4.5783 13.1211 4.7214 14.5501 5.55192 15.035C5.75208 15.1519 5.97816 15.2107 6.228 15.2105C6.38694 15.2105 6.5556 15.1868 6.73308 15.1393C7.42032 14.9551 8.20782 14.4175 8.99982 13.6274C9.79182 14.4175 10.5793 14.9551 11.2666 15.1393C11.444 15.1868 11.6127 15.2105 11.7716 15.2105C12.0215 15.2105 12.2476 15.152 12.4477 15.035C13.2782 14.5501 13.4212 13.1211 12.9566 11.3038C14.7645 10.8052 15.9298 9.96768 15.9298 9ZM11.4062 3.38238C11.5367 3.34764 11.6577 3.33 11.7691 3.33C11.9239 3.33 12.06 3.36384 12.1754 3.43134C12.7319 3.75642 12.8455 4.94694 12.431 6.56532C11.8598 6.4368 11.2367 6.34014 10.5745 6.28038C10.1858 5.72004 9.78156 5.20992 9.37422 4.76316C10.0975 4.0383 10.807 3.54294 11.4062 3.38238ZM10.9357 10.1338C10.7235 10.5057 10.5001 10.8619 10.271 11.2028C9.86418 11.2333 9.4401 11.25 8.99982 11.25C8.55954 11.25 8.13546 11.2333 7.72884 11.2028C7.4997 10.8619 7.27632 10.5057 7.0641 10.1338C6.84468 9.74934 6.64776 9.37062 6.47136 9.00018C6.64776 8.62974 6.84468 8.25102 7.0641 7.86636C7.2765 7.4943 7.4997 7.13808 7.72902 6.79716C8.13564 6.76674 8.55954 6.75 8.99982 6.75C9.4401 6.75 9.864 6.76674 10.2708 6.79716C10.4999 7.13808 10.7233 7.49448 10.9357 7.86636C11.1551 8.25084 11.3521 8.62956 11.5285 9.00018C11.3521 9.37062 11.1551 9.74934 10.9357 10.1338ZM11.8157 9.6381C12.0031 10.0811 12.1579 10.5075 12.2832 10.9129C11.8737 11.0041 11.4316 11.0803 10.9595 11.1366C11.111 10.8979 11.2604 10.6538 11.4046 10.4013C11.5506 10.1459 11.6869 9.89118 11.8157 9.6381ZM8.99982 12.8443C8.70534 12.5186 8.4114 12.1581 8.1243 11.768C8.41086 11.7819 8.70246 11.79 8.99982 11.79C9.29718 11.79 9.58878 11.7819 9.87534 11.768C9.58824 12.1579 9.2943 12.5185 8.99982 12.8443ZM7.03998 11.1366C6.56802 11.0803 6.12576 11.0041 5.71626 10.9129C5.84154 10.5075 5.99634 10.0809 6.18372 9.6381C6.3126 9.89118 6.44904 10.1459 6.59484 10.4013C6.7392 10.654 6.88842 10.8981 7.03998 11.1366ZM6.1839 8.36208C5.99652 7.9191 5.84154 7.4925 5.71644 7.08696C6.12594 6.9957 6.5682 6.91956 7.04034 6.86322C6.8886 7.1019 6.73938 7.34616 6.5952 7.5987C6.44904 7.8543 6.31278 8.109 6.1839 8.36208ZM8.99982 5.15592C9.2943 5.48154 9.58824 5.84208 9.87534 6.23214C9.58878 6.2181 9.29718 6.21 8.99982 6.21C8.70246 6.21 8.41086 6.2181 8.1243 6.23196C8.4114 5.84208 8.70534 5.48154 8.99982 5.15592ZM11.4046 7.59888C11.2604 7.34616 11.111 7.10208 10.9595 6.8634C11.4316 6.91974 11.8737 6.99588 12.2834 7.08714C12.1581 7.49268 12.0033 7.9191 11.8159 8.36226C11.6869 8.109 11.5506 7.8543 11.4046 7.59888ZM5.82426 3.43134C5.93982 3.36384 6.07554 3.33 6.23052 3.33C6.34176 3.33 6.46308 3.34764 6.5934 3.38238C7.19262 3.54294 7.90218 4.03812 8.62542 4.76298C8.21808 5.20974 7.8138 5.72004 7.42518 6.2802C6.76296 6.33996 6.13962 6.43662 5.56866 6.56514C5.15412 4.94676 5.2677 3.75624 5.82426 3.43134ZM2.60982 9C2.60982 8.35272 3.582 7.6608 5.19012 7.21782C5.36454 7.78644 5.5935 8.3853 5.8752 9C5.5935 9.6147 5.36454 10.2136 5.19012 10.7822C3.582 10.3392 2.60982 9.64728 2.60982 9ZM6.5934 14.6176C6.28146 14.7008 6.0228 14.6844 5.82426 14.5688C5.2677 14.2438 5.1543 13.0532 5.56866 11.4349C6.13962 11.5634 6.76296 11.66 7.425 11.7198C7.81362 12.2801 8.2179 12.7903 8.62524 13.2372C7.90218 13.9619 7.19262 14.4571 6.5934 14.6176ZM12.1754 14.5688C11.9768 14.6848 11.7184 14.701 11.4062 14.6176C10.807 14.4571 10.0975 13.9619 9.37422 13.237C9.78156 12.7903 10.1858 12.28 10.5745 11.7196C11.2367 11.6599 11.8598 11.5632 12.4308 11.4347C12.8455 13.0532 12.7319 14.2438 12.1754 14.5688ZM12.8095 10.7822C12.6351 10.2136 12.4061 9.6147 12.1244 9C12.4061 8.3853 12.6351 7.78626 12.8095 7.21782C14.4176 7.6608 15.3898 8.35272 15.3898 9C15.3898 9.64728 14.4176 10.3392 12.8095 10.7822Z" fill="#39C1D7"/>
<path d="M6.22708 15.3004C5.9623 15.3004 5.72002 15.2372 5.5069 15.1126C4.67314 14.6257 4.46596 13.2629 4.93486 11.3666C3.05548 10.8322 1.97998 9.972 1.97998 9C1.97998 8.028 3.05548 7.16778 4.93468 6.63336C4.46596 4.73706 4.67314 3.37428 5.5069 2.88738C5.85574 2.68326 6.27604 2.6451 6.75664 2.77398C7.42588 2.95326 8.20024 3.46158 8.99998 4.2462C9.7999 3.46158 10.5743 2.95326 11.2433 2.77398C11.7237 2.64546 12.1442 2.68362 12.4932 2.88738C13.3268 3.37428 13.534 4.73706 13.0653 6.63336C14.9445 7.16778 16.02 8.028 16.02 9C16.02 9.972 14.9445 10.8322 13.0653 11.3666C13.534 13.2629 13.327 14.6255 12.4932 15.1126C12.1464 15.3151 11.7218 15.3542 11.2435 15.226C10.5741 15.0467 9.79972 14.5384 8.99998 13.754C8.20024 14.5384 7.42588 15.0469 6.75664 15.226C6.5725 15.2753 6.39466 15.3004 6.22816 15.3004C6.2278 15.3004 6.22744 15.3004 6.22708 15.3004ZM6.2287 2.87982C5.99452 2.87982 5.78338 2.93418 5.59744 3.0429C4.83712 3.48696 4.66252 4.84434 5.13034 6.67404C5.1424 6.72156 5.11432 6.77016 5.06698 6.78312C3.24682 7.28496 2.15998 8.11386 2.15998 9C2.15998 9.88614 3.24682 10.715 5.06716 11.2169C5.1145 11.2298 5.14258 11.2784 5.13052 11.326C4.66252 13.1557 4.83712 14.5132 5.59744 14.9571C5.78284 15.0653 5.9947 15.1202 6.22708 15.1202C6.22744 15.1202 6.2278 15.1202 6.22816 15.1202C6.379 15.1202 6.541 15.0973 6.71002 15.0521C7.36648 14.8763 8.13652 14.3617 8.93644 13.5635C8.97154 13.5286 9.02842 13.5286 9.06352 13.5635C9.86344 14.3615 10.6335 14.8761 11.2899 15.0521C11.7209 15.1672 12.0972 15.1351 12.4025 14.9571C13.1628 14.513 13.3374 13.1557 12.8694 11.326C12.8574 11.2784 12.8855 11.2298 12.9328 11.2169C14.7531 10.715 15.84 9.88614 15.84 9C15.84 8.11386 14.7531 7.28496 12.9328 6.78312C12.8855 6.77016 12.8574 6.72156 12.8694 6.67404C13.3373 4.84434 13.1627 3.48678 12.4023 3.0429C12.0965 2.86416 11.7221 2.8323 11.2898 2.94786C10.6333 3.12372 9.86344 3.63834 9.06334 4.43646C9.02824 4.47138 8.97136 4.47138 8.93626 4.43646C8.13616 3.63834 7.3663 3.12372 6.70984 2.94786C6.54046 2.9025 6.3799 2.87982 6.2287 2.87982ZM11.7695 14.7598C11.6501 14.7598 11.5212 14.7415 11.3832 14.7046C10.7836 14.5438 10.067 14.0585 9.31066 13.3006C9.27682 13.2665 9.27556 13.2118 9.30778 13.1764C9.71548 12.7292 10.1167 12.2218 10.5006 11.6683C10.5158 11.6464 10.5399 11.6323 10.5665 11.63C11.2167 11.5713 11.8373 11.4761 12.4113 11.3468C12.4583 11.3362 12.5062 11.365 12.5183 11.4124C12.9387 13.0545 12.8248 14.2938 12.2209 14.6464C12.0915 14.722 11.9405 14.7598 11.7695 14.7598ZM9.49876 13.2338C10.2099 13.9347 10.8763 14.3824 11.4296 14.5307C11.7174 14.6075 11.9532 14.5942 12.1302 14.4911C12.6441 14.1908 12.7344 13.0379 12.3653 11.5414C11.8202 11.66 11.2354 11.7488 10.6247 11.8055C10.2618 12.326 9.88342 12.8059 9.49876 13.2338ZM6.2305 14.7598C6.0595 14.7598 5.90848 14.722 5.77906 14.6466C5.17516 14.2938 5.06104 13.0545 5.4817 11.4124C5.49376 11.3652 5.54164 11.3369 5.58862 11.3468C6.16246 11.4761 6.7831 11.5713 7.43344 11.63C7.4599 11.6323 7.4842 11.6464 7.49932 11.6683C7.88326 12.2218 8.28448 12.7292 8.69218 13.1764C8.72458 13.2118 8.72332 13.2665 8.6893 13.3006C7.93294 14.0584 7.21636 14.5438 6.61696 14.7046C6.47872 14.7413 6.34966 14.7598 6.2305 14.7598ZM5.6347 11.5414C5.26552 13.0378 5.35588 14.1908 5.86978 14.4911C6.04654 14.594 6.28234 14.6075 6.57034 14.5307C7.12366 14.3824 7.79002 13.9345 8.5012 13.2338C8.11672 12.8059 7.73836 12.326 7.37548 11.8055C6.76474 11.7488 6.17974 11.66 5.6347 11.5414ZM8.99998 12.9341C8.9746 12.9341 8.9503 12.9233 8.9332 12.9044C8.63386 12.5734 8.3374 12.2089 8.05192 11.8211C8.0314 11.7932 8.0287 11.7558 8.04508 11.7252C8.06146 11.6946 8.09206 11.6759 8.12878 11.6779C8.72386 11.7068 9.2761 11.7068 9.87118 11.6779C9.90718 11.6757 9.9385 11.6946 9.95488 11.7252C9.97126 11.7558 9.96874 11.7931 9.94804 11.8211C9.66256 12.2087 9.3661 12.5732 9.06676 12.9044C9.04966 12.9233 9.02536 12.9341 8.99998 12.9341ZM8.31004 11.8663C8.53522 12.1642 8.7667 12.447 8.99998 12.7094C9.23344 12.447 9.46474 12.1644 9.68992 11.8663C9.21976 11.8843 8.7802 11.8843 8.31004 11.8663ZM8.99998 11.34C8.57356 11.34 8.14372 11.3242 7.72216 11.2927C7.69462 11.2907 7.6696 11.2761 7.65412 11.2531C7.41346 10.895 7.18864 10.5334 6.98596 10.1785C6.77356 9.80622 6.57304 9.42282 6.39016 9.0387C6.37846 9.01422 6.37846 8.98578 6.39016 8.9613C6.57304 8.57718 6.77356 8.19378 6.98596 7.82154C7.18846 7.46694 7.41328 7.10532 7.6543 6.74676C7.6696 6.7239 7.6948 6.70932 7.72234 6.70716C8.56546 6.64416 9.43468 6.64416 10.2776 6.70716C10.3052 6.70914 10.3302 6.72372 10.3457 6.74676C10.5867 7.10532 10.8115 7.46694 11.014 7.82154C11.2264 8.19378 11.4269 8.57718 11.6098 8.9613C11.6215 8.98578 11.6215 9.01422 11.6098 9.0387C11.4269 9.42282 11.2264 9.80622 11.014 10.1785C10.8113 10.5334 10.5865 10.895 10.3458 11.2531C10.3305 11.2759 10.3053 11.2905 10.2778 11.2927C9.85624 11.3242 9.4264 11.34 8.99998 11.34ZM7.77922 11.1163C8.58544 11.1742 9.41452 11.1742 10.2206 11.1163C10.4497 10.7737 10.6639 10.4283 10.8576 10.089C11.0606 9.73314 11.2527 9.36702 11.4287 9C11.2527 8.63298 11.0606 8.26668 10.8576 7.911C10.6641 7.57206 10.4499 7.22664 10.2204 6.88356C9.41416 6.8256 8.58526 6.8256 7.77904 6.88356C7.54972 7.22664 7.33534 7.57206 7.14184 7.911C6.9388 8.26686 6.74674 8.63298 6.5707 9C6.74674 9.36702 6.9388 9.73332 7.14184 10.089C7.33588 10.4285 7.55008 10.7737 7.77922 11.1163ZM10.9598 11.2268C10.9292 11.2268 10.9002 11.2111 10.8837 11.1848C10.8651 11.1553 10.8653 11.1179 10.8839 11.0885C11.0509 10.8256 11.1958 10.5862 11.3267 10.3568C11.4642 10.116 11.6017 9.8604 11.7358 9.59742C11.7516 9.56628 11.7849 9.54774 11.8191 9.54846C11.8541 9.54972 11.8852 9.57096 11.8989 9.60336C12.0816 10.0352 12.2398 10.467 12.3694 10.8866C12.377 10.9105 12.3739 10.9366 12.3613 10.9582C12.3487 10.98 12.3275 10.9955 12.303 11.0009C11.88 11.0954 11.4316 11.1712 10.9704 11.2262C10.9668 11.2266 10.9632 11.2268 10.9598 11.2268ZM11.8073 9.85158C11.7003 10.0564 11.5916 10.2557 11.4831 10.4459C11.3781 10.6299 11.2642 10.8202 11.1375 11.0236C11.4921 10.9764 11.8377 10.9168 12.1683 10.8459C12.0645 10.5194 11.9435 10.1862 11.8073 9.85158ZM7.04014 11.2268C7.03654 11.2268 7.03294 11.2266 7.02934 11.2262C6.56836 11.171 6.11998 11.0952 5.69698 11.0007C5.6725 10.9953 5.65144 10.9798 5.63866 10.958C5.62606 10.9363 5.62318 10.9103 5.63056 10.8864C5.76016 10.4666 5.91838 10.035 6.10108 9.60318C6.11476 9.57096 6.1459 9.54954 6.18082 9.54828C6.21358 9.54486 6.24832 9.5661 6.26416 9.59724C6.39826 9.86022 6.53578 10.1158 6.6733 10.3567C6.80434 10.586 6.94924 10.8254 7.1161 11.0884C7.13482 11.1177 7.13482 11.1551 7.11628 11.1847C7.09972 11.2111 7.07092 11.2268 7.04014 11.2268ZM5.8318 10.8459C6.16246 10.9168 6.50806 10.9764 6.86266 11.0236C6.73576 10.8202 6.622 10.6299 6.51706 10.4459C6.40834 10.2557 6.2998 10.0562 6.19288 9.85158C6.05644 10.1862 5.93548 10.5194 5.8318 10.8459ZM12.8097 10.8722C12.771 10.8722 12.7355 10.8472 12.7236 10.8085C12.5481 10.2362 12.319 9.64044 12.0429 9.03762C12.0319 9.01386 12.0319 8.98632 12.0429 8.96256C12.319 8.35974 12.5481 7.76376 12.7238 7.19136C12.7382 7.14474 12.7875 7.11864 12.8338 7.13106C14.466 7.58088 15.48 8.29692 15.48 9C15.48 9.70308 14.4659 10.4191 12.8334 10.8689C12.8255 10.8711 12.8174 10.8722 12.8097 10.8722ZM12.2236 9C12.4821 9.5679 12.6993 10.1299 12.8696 10.6718C14.349 10.2501 15.3 9.59796 15.3 9C15.3 8.40204 14.349 7.7499 12.8696 7.32816C12.6992 7.87032 12.4819 8.43228 12.2236 9ZM5.19028 10.8722C5.18236 10.8722 5.17444 10.8711 5.16634 10.8689C3.5341 10.4191 2.51998 9.70308 2.51998 9C2.51998 8.29692 3.53392 7.58088 5.16634 7.13106C5.21278 7.11864 5.26192 7.14474 5.27632 7.19136C5.452 7.76376 5.68114 8.35974 5.95726 8.96256C5.96824 8.98632 5.96824 9.01368 5.95726 9.03762C5.68096 9.64062 5.452 10.2364 5.2765 10.8085C5.26462 10.8472 5.22898 10.8722 5.19028 10.8722ZM5.13034 7.32816C3.65092 7.7499 2.69998 8.40204 2.69998 9C2.69998 9.59796 3.65092 10.2501 5.13034 10.6718C5.3008 10.1299 5.51788 9.56808 5.77636 9C5.51806 8.43228 5.3008 7.87032 5.13034 7.32816ZM11.8161 8.45226C11.7822 8.45226 11.7513 8.43336 11.7358 8.40312C11.5995 8.13528 11.4656 7.8867 11.3268 7.64352C11.1962 7.41456 11.0513 7.17516 10.8839 6.91164C10.8651 6.8823 10.8651 6.84486 10.8837 6.81534C10.9022 6.786 10.9353 6.7698 10.9706 6.77394C11.432 6.8292 11.8803 6.90498 12.3033 6.9993C12.3278 7.0047 12.3489 7.02018 12.3617 7.04196C12.3743 7.06374 12.3771 7.08966 12.3698 7.1136C12.24 7.53408 12.0816 7.9659 11.8992 8.39718C11.8856 8.4294 11.8544 8.45082 11.8195 8.45208C11.8181 8.45226 11.817 8.45226 11.8161 8.45226ZM11.4829 7.55424C11.5929 7.74684 11.6998 7.94268 11.8071 8.1486C11.9432 7.81452 12.0641 7.48098 12.168 7.1541C11.8373 7.08318 11.4917 7.0236 11.1369 6.97644C11.2644 7.1802 11.3781 7.37046 11.4829 7.55424ZM6.18388 8.45226C6.1828 8.45226 6.18172 8.45226 6.18064 8.45226C6.14572 8.451 6.11458 8.42976 6.1009 8.39736C5.91856 7.96608 5.76016 7.53426 5.63038 7.11378C5.62282 7.08984 5.62588 7.06374 5.63848 7.04214C5.65108 7.02036 5.67232 7.00488 5.6968 6.99948C6.1198 6.90498 6.56818 6.8292 7.02952 6.77412C7.06462 6.77052 7.09792 6.78618 7.11646 6.81552C7.135 6.84504 7.13482 6.88248 7.11628 6.91182C6.94888 7.17534 6.80398 7.41474 6.6733 7.6437C6.53452 7.88688 6.4006 8.13528 6.26434 8.4033C6.24868 8.43336 6.21772 8.45226 6.18388 8.45226ZM5.8318 7.1541C5.93566 7.48098 6.0568 7.81452 6.1927 8.1486C6.30016 7.94268 6.4069 7.74684 6.51688 7.55424C6.62182 7.37046 6.73558 7.1802 6.86266 6.97644C6.50806 7.0236 6.16246 7.08318 5.8318 7.1541ZM12.4313 6.65532C12.4247 6.65532 12.4182 6.6546 12.4115 6.65316C11.8377 6.52392 11.2169 6.4287 10.5665 6.37002C10.5401 6.36768 10.5158 6.35364 10.5006 6.33168C10.1167 5.778 9.7153 5.27076 9.30778 4.82382C9.27538 4.78836 9.27664 4.73364 9.31066 4.69962C10.0668 3.94182 10.7836 3.45618 11.3832 3.29562C11.7196 3.20562 12.002 3.22596 12.2209 3.35358C12.8248 3.70638 12.9389 4.94568 12.5184 6.58782C12.508 6.62814 12.4716 6.65532 12.4313 6.65532ZM10.6245 6.19452C11.2352 6.25122 11.8202 6.33996 12.3653 6.45858C12.7344 4.96224 12.6441 3.80916 12.13 3.50892C11.9538 3.40614 11.7176 3.39264 11.4296 3.46932C10.8763 3.61764 10.2098 4.06548 9.49858 4.7664C9.88324 5.1939 10.2616 5.67378 10.6245 6.19452ZM5.56864 6.65532C5.52832 6.65532 5.49196 6.62814 5.48152 6.58764C5.06104 4.9455 5.17498 3.70638 5.77888 3.35358C5.99776 3.22596 6.28072 3.20562 6.6166 3.29562C7.21636 3.45636 7.93294 3.94182 8.68912 4.69962C8.72296 4.73364 8.72422 4.78836 8.692 4.82382C8.28448 5.27076 7.88308 5.77818 7.49914 6.33168C7.48402 6.35364 7.4599 6.36768 7.43326 6.37002C6.7831 6.4287 6.16228 6.52392 5.58826 6.65316C5.58178 6.6546 5.5753 6.65532 5.56864 6.65532ZM5.86978 3.50892C5.35588 3.80916 5.26552 4.96224 5.63452 6.45858C6.17956 6.33996 6.76456 6.25122 7.3753 6.19452C7.73836 5.67378 8.11654 5.1939 8.50102 4.76622C7.78984 4.0653 7.12348 3.61746 6.56998 3.46914C6.28324 3.39264 6.04672 3.40596 5.86978 3.50892ZM9.8755 6.32196C9.87406 6.32196 9.87262 6.32196 9.87118 6.32196C9.2761 6.29298 8.72404 6.29298 8.12896 6.32196C8.09188 6.32286 8.06164 6.30504 8.04526 6.27462C8.02888 6.24402 8.0314 6.20676 8.0521 6.17868C8.33776 5.79078 8.63422 5.42628 8.93338 5.09544C8.96758 5.05782 9.03274 5.05782 9.06694 5.09544C9.36592 5.4261 9.66238 5.7906 9.94822 6.17868C9.96874 6.20658 9.97144 6.24402 9.95506 6.27462C9.93904 6.30378 9.90844 6.32196 9.8755 6.32196ZM8.99998 6.12C9.22354 6.12 9.45484 6.12468 9.68992 6.13386C9.46456 5.8356 9.23308 5.55282 8.99998 5.29074C8.76688 5.553 8.5354 5.8356 8.31004 6.13386C8.54512 6.12468 8.77642 6.12 8.99998 6.12Z" fill="#1F212B"/>
</svg>
