<svg width="16" height="14" viewBox="0 0 16 14" fill="none" xmlns="http://www.w3.org/2000/svg">
<path d="M5.22708 13.3004C4.9623 13.3004 4.72002 13.2372 4.5069 13.1126C3.67314 12.6257 3.46596 11.2629 3.93486 9.36664C2.05548 8.83222 0.97998 7.972 0.97998 7C0.97998 6.028 2.05548 5.16778 3.93468 4.63336C3.46596 2.73706 3.67314 1.37428 4.5069 0.887381C4.85574 0.683261 5.27604 0.645101 5.75664 0.773981C6.42588 0.953261 7.20024 1.46158 7.99998 2.2462C8.7999 1.46158 9.57426 0.953261 10.2433 0.773981C10.7237 0.645461 11.1442 0.683621 11.4932 0.887381C12.3268 1.37428 12.534 2.73706 12.0653 4.63336C13.9445 5.16778 15.02 6.028 15.02 7C15.02 7.972 13.9445 8.83222 12.0653 9.36664C12.534 11.2629 12.327 12.6255 11.4932 13.1126C11.1464 13.3151 10.7218 13.3542 10.2435 13.226C9.57408 13.0467 8.79972 12.5384 7.99998 11.754C7.20024 12.5384 6.42588 13.0469 5.75664 13.226C5.5725 13.2753 5.39466 13.3004 5.22816 13.3004C5.2278 13.3004 5.22744 13.3004 5.22708 13.3004ZM5.2287 0.879821C4.99452 0.879821 4.78338 0.934181 4.59744 1.0429C3.83712 1.48696 3.66252 2.84434 4.13034 4.67404C4.1424 4.72156 4.11432 4.77016 4.06698 4.78312C2.24682 5.28496 1.15998 6.11386 1.15998 7C1.15998 7.88614 2.24682 8.71504 4.06716 9.21688C4.1145 9.22984 4.14258 9.27844 4.13052 9.32596C3.66252 11.1557 3.83712 12.5132 4.59744 12.9571C4.78284 13.0653 4.9947 13.1202 5.22708 13.1202C5.22744 13.1202 5.2278 13.1202 5.22816 13.1202C5.379 13.1202 5.541 13.0973 5.71002 13.0521C6.36648 12.8763 7.13652 12.3617 7.93644 11.5635C7.97154 11.5286 8.02842 11.5286 8.06352 11.5635C8.86344 12.3615 9.63348 12.8761 10.2899 13.0521C10.7209 13.1672 11.0972 13.1351 11.4025 12.9571C12.1628 12.513 12.3374 11.1557 11.8694 9.32596C11.8574 9.27844 11.8855 9.22984 11.9328 9.21688C13.7531 8.71504 14.84 7.88614 14.84 7C14.84 6.11386 13.7531 5.28496 11.9328 4.78312C11.8855 4.77016 11.8574 4.72156 11.8694 4.67404C12.3373 2.84434 12.1627 1.48678 11.4023 1.0429C11.0965 0.864161 10.7221 0.832301 10.2898 0.947861C9.6333 1.12372 8.86344 1.63834 8.06334 2.43646C8.02824 2.47138 7.97136 2.47138 7.93626 2.43646C7.13616 1.63834 6.3663 1.12372 5.70984 0.947861C5.54046 0.902501 5.3799 0.879821 5.2287 0.879821ZM10.7695 12.7598C10.6501 12.7598 10.5212 12.7415 10.3832 12.7046C9.7836 12.5438 9.06702 12.0585 8.31066 11.3006C8.27682 11.2665 8.27556 11.2118 8.30778 11.1764C8.71548 10.7292 9.1167 10.2218 9.50064 9.66832C9.51576 9.64636 9.53988 9.63232 9.56652 9.62998C10.2167 9.5713 10.8373 9.47608 11.4113 9.34684C11.4583 9.33622 11.5062 9.36502 11.5183 9.41236C11.9387 11.0545 11.8248 12.2938 11.2209 12.6464C11.0915 12.722 10.9405 12.7598 10.7695 12.7598ZM8.49876 11.2338C9.20994 11.9347 9.8763 12.3824 10.4296 12.5307C10.7174 12.6075 10.9532 12.5942 11.1302 12.4911C11.6441 12.1908 11.7344 11.0379 11.3653 9.54142C10.8202 9.66004 10.2354 9.74878 9.62466 9.80548C9.26178 10.326 8.88342 10.8059 8.49876 11.2338ZM5.2305 12.7598C5.0595 12.7598 4.90848 12.722 4.77906 12.6466C4.17516 12.2938 4.06104 11.0545 4.4817 9.41236C4.49376 9.3652 4.54164 9.33694 4.58862 9.34684C5.16246 9.47608 5.7831 9.5713 6.43344 9.62998C6.4599 9.63232 6.4842 9.64636 6.49932 9.66832C6.88326 10.2218 7.28448 10.7292 7.69218 11.1764C7.72458 11.2118 7.72332 11.2665 7.6893 11.3006C6.93294 12.0584 6.21636 12.5438 5.61696 12.7046C5.47872 12.7413 5.34966 12.7598 5.2305 12.7598ZM4.6347 9.54142C4.26552 11.0378 4.35588 12.1908 4.86978 12.4911C5.04654 12.594 5.28234 12.6075 5.57034 12.5307C6.12366 12.3824 6.79002 11.9345 7.5012 11.2338C7.11672 10.8059 6.73836 10.326 6.37548 9.80548C5.76474 9.74878 5.17974 9.66004 4.6347 9.54142ZM7.99998 10.9341C7.9746 10.9341 7.9503 10.9233 7.9332 10.9044C7.63386 10.5734 7.3374 10.2089 7.05192 9.82114C7.0314 9.79324 7.0287 9.7558 7.04508 9.7252C7.06146 9.6946 7.09206 9.67588 7.12878 9.67786C7.72386 9.70684 8.2761 9.70684 8.87118 9.67786C8.90718 9.6757 8.9385 9.6946 8.95488 9.7252C8.97126 9.7558 8.96874 9.79306 8.94804 9.82114C8.66256 10.2087 8.3661 10.5732 8.06676 10.9044C8.04966 10.9233 8.02536 10.9341 7.99998 10.9341ZM7.31004 9.86632C7.53522 10.1642 7.7667 10.447 7.99998 10.7094C8.23344 10.447 8.46474 10.1644 8.68992 9.86632C8.21976 9.88432 7.7802 9.88432 7.31004 9.86632ZM7.99998 9.34C7.57356 9.34 7.14372 9.32416 6.72216 9.29266C6.69462 9.29068 6.6696 9.2761 6.65412 9.25306C6.41346 8.89504 6.18864 8.53342 5.98596 8.17846C5.77356 7.80622 5.57304 7.42282 5.39016 7.0387C5.37846 7.01422 5.37846 6.98578 5.39016 6.9613C5.57304 6.57718 5.77356 6.19378 5.98596 5.82154C6.18846 5.46694 6.41328 5.10532 6.6543 4.74676C6.6696 4.7239 6.6948 4.70932 6.72234 4.70716C7.56546 4.64416 8.43468 4.64416 9.27762 4.70716C9.30516 4.70914 9.33018 4.72372 9.34566 4.74676C9.58668 5.10532 9.8115 5.46694 10.014 5.82154C10.2264 6.19378 10.4269 6.57718 10.6098 6.9613C10.6215 6.98578 10.6215 7.01422 10.6098 7.0387C10.4269 7.42282 10.2264 7.80622 10.014 8.17846C9.81132 8.53342 9.5865 8.89504 9.34584 9.25306C9.33054 9.27592 9.30534 9.2905 9.2778 9.29266C8.85624 9.32416 8.4264 9.34 7.99998 9.34ZM6.77922 9.11626C7.58544 9.17422 8.41452 9.17422 9.22056 9.11626C9.4497 8.77372 9.6639 8.4283 9.85758 8.089C10.0606 7.73314 10.2527 7.36702 10.4287 7C10.2527 6.63298 10.0606 6.26668 9.85758 5.911C9.66408 5.57206 9.44988 5.22664 9.22038 4.88356C8.41416 4.8256 7.58526 4.8256 6.77904 4.88356C6.54972 5.22664 6.33534 5.57206 6.14184 5.911C5.9388 6.26686 5.74674 6.63298 5.5707 7C5.74674 7.36702 5.9388 7.73332 6.14184 8.089C6.33588 8.42848 6.55008 8.77372 6.77922 9.11626ZM9.95982 9.22678C9.92922 9.22678 9.90024 9.21112 9.88368 9.18484C9.86514 9.15532 9.86532 9.11788 9.88386 9.08854C10.0509 8.82556 10.1958 8.58616 10.3267 8.35684C10.4642 8.116 10.6017 7.8604 10.7358 7.59742C10.7516 7.56628 10.7849 7.54774 10.8191 7.54846C10.8541 7.54972 10.8852 7.57096 10.8989 7.60336C11.0816 8.03518 11.2398 8.467 11.3694 8.88658C11.377 8.91052 11.3739 8.93662 11.3613 8.95822C11.3487 8.98 11.3275 8.99548 11.303 9.00088C10.88 9.09538 10.4316 9.17116 9.97044 9.22624C9.96684 9.2266 9.96324 9.22678 9.95982 9.22678ZM10.8073 7.85158C10.7003 8.05642 10.5916 8.25568 10.4831 8.44594C10.3781 8.6299 10.2642 8.82016 10.1375 9.02356C10.4921 8.9764 10.8377 8.91682 11.1683 8.8459C11.0645 8.51938 10.9435 8.1862 10.8073 7.85158ZM6.04014 9.22678C6.03654 9.22678 6.03294 9.2266 6.02934 9.22624C5.56836 9.17098 5.11998 9.0952 4.69698 9.0007C4.6725 8.9953 4.65144 8.97982 4.63866 8.95804C4.62606 8.93626 4.62318 8.91034 4.63056 8.8864C4.76016 8.46664 4.91838 8.035 5.10108 7.60318C5.11476 7.57096 5.1459 7.54954 5.18082 7.54828C5.21358 7.54486 5.24832 7.5661 5.26416 7.59724C5.39826 7.86022 5.53578 8.11582 5.6733 8.35666C5.80434 8.58598 5.94924 8.82538 6.1161 9.08836C6.13482 9.1177 6.13482 9.15514 6.11628 9.18466C6.09972 9.21112 6.07092 9.22678 6.04014 9.22678ZM4.8318 8.8459C5.16246 8.91682 5.50806 8.9764 5.86266 9.02356C5.73576 8.82016 5.622 8.6299 5.51706 8.44594C5.40834 8.25568 5.2998 8.05624 5.19288 7.85158C5.05644 8.1862 4.93548 8.51938 4.8318 8.8459ZM11.8097 8.87218C11.771 8.87218 11.7355 8.84716 11.7236 8.80846C11.5481 8.23624 11.319 7.64044 11.0429 7.03762C11.0319 7.01386 11.0319 6.98632 11.0429 6.96256C11.319 6.35974 11.5481 5.76376 11.7238 5.19136C11.7382 5.14474 11.7875 5.11864 11.8338 5.13106C13.466 5.58088 14.48 6.29692 14.48 7C14.48 7.70308 13.4659 8.41912 11.8334 8.86894C11.8255 8.8711 11.8174 8.87218 11.8097 8.87218ZM11.2236 7C11.4821 7.5679 11.6993 8.12986 11.8696 8.67184C13.349 8.2501 14.3 7.59796 14.3 7C14.3 6.40204 13.349 5.7499 11.8696 5.32816C11.6992 5.87032 11.4819 6.43228 11.2236 7ZM4.19028 8.87218C4.18236 8.87218 4.17444 8.8711 4.16634 8.86894C2.5341 8.41912 1.51998 7.70308 1.51998 7C1.51998 6.29692 2.53392 5.58088 4.16634 5.13106C4.21278 5.11864 4.26192 5.14474 4.27632 5.19136C4.452 5.76376 4.68114 6.35974 4.95726 6.96256C4.96824 6.98632 4.96824 7.01368 4.95726 7.03762C4.68096 7.64062 4.452 8.23642 4.2765 8.80846C4.26462 8.84716 4.22898 8.87218 4.19028 8.87218ZM4.13034 5.32816C2.65092 5.7499 1.69998 6.40204 1.69998 7C1.69998 7.59796 2.65092 8.2501 4.13034 8.67184C4.3008 8.12986 4.51788 7.56808 4.77636 7C4.51806 6.43228 4.3008 5.87032 4.13034 5.32816ZM10.8161 6.45226C10.7822 6.45226 10.7513 6.43336 10.7358 6.40312C10.5995 6.13528 10.4656 5.8867 10.3268 5.64352C10.1962 5.41456 10.0513 5.17516 9.88386 4.91164C9.86514 4.8823 9.86514 4.84486 9.88368 4.81534C9.90222 4.786 9.93534 4.7698 9.97062 4.77394C10.432 4.8292 10.8803 4.90498 11.3033 4.9993C11.3278 5.0047 11.3489 5.02018 11.3617 5.04196C11.3743 5.06374 11.3771 5.08966 11.3698 5.1136C11.24 5.53408 11.0816 5.9659 10.8992 6.39718C10.8856 6.4294 10.8544 6.45082 10.8195 6.45208C10.8181 6.45226 10.817 6.45226 10.8161 6.45226ZM10.4829 5.55424C10.5929 5.74684 10.6998 5.94268 10.8071 6.1486C10.9432 5.81452 11.0641 5.48098 11.168 5.1541C10.8373 5.08318 10.4917 5.0236 10.1369 4.97644C10.2644 5.1802 10.3781 5.37046 10.4829 5.55424ZM5.18388 6.45226C5.1828 6.45226 5.18172 6.45226 5.18064 6.45226C5.14572 6.451 5.11458 6.42976 5.1009 6.39736C4.91856 5.96608 4.76016 5.53426 4.63038 5.11378C4.62282 5.08984 4.62588 5.06374 4.63848 5.04214C4.65108 5.02036 4.67232 5.00488 4.6968 4.99948C5.1198 4.90498 5.56818 4.8292 6.02952 4.77412C6.06462 4.77052 6.09792 4.78618 6.11646 4.81552C6.135 4.84504 6.13482 4.88248 6.11628 4.91182C5.94888 5.17534 5.80398 5.41474 5.6733 5.6437C5.53452 5.88688 5.4006 6.13528 5.26434 6.4033C5.24868 6.43336 5.21772 6.45226 5.18388 6.45226ZM4.8318 5.1541C4.93566 5.48098 5.0568 5.81452 5.1927 6.1486C5.30016 5.94268 5.4069 5.74684 5.51688 5.55424C5.62182 5.37046 5.73558 5.1802 5.86266 4.97644C5.50806 5.0236 5.16246 5.08318 4.8318 5.1541ZM11.4313 4.65532C11.4247 4.65532 11.4182 4.6546 11.4115 4.65316C10.8377 4.52392 10.2169 4.4287 9.56652 4.37002C9.54006 4.36768 9.51576 4.35364 9.50064 4.33168C9.1167 3.778 8.7153 3.27076 8.30778 2.82382C8.27538 2.78836 8.27664 2.73364 8.31066 2.69962C9.06684 1.94182 9.7836 1.45618 10.3832 1.29562C10.7196 1.20562 11.002 1.22596 11.2209 1.35358C11.8248 1.70638 11.9389 2.94568 11.5184 4.58782C11.508 4.62814 11.4716 4.65532 11.4313 4.65532ZM9.62448 4.19452C10.2352 4.25122 10.8202 4.33996 11.3653 4.45858C11.7344 2.96224 11.6441 1.80916 11.13 1.50892C10.9538 1.40614 10.7176 1.39264 10.4296 1.46932C9.8763 1.61764 9.20976 2.06548 8.49858 2.7664C8.88324 3.1939 9.2616 3.67378 9.62448 4.19452ZM4.56864 4.65532C4.52832 4.65532 4.49196 4.62814 4.48152 4.58764C4.06104 2.9455 4.17498 1.70638 4.77888 1.35358C4.99776 1.22596 5.28072 1.20562 5.6166 1.29562C6.21636 1.45636 6.93294 1.94182 7.68912 2.69962C7.72296 2.73364 7.72422 2.78836 7.692 2.82382C7.28448 3.27076 6.88308 3.77818 6.49914 4.33168C6.48402 4.35364 6.4599 4.36768 6.43326 4.37002C5.7831 4.4287 5.16228 4.52392 4.58826 4.65316C4.58178 4.6546 4.5753 4.65532 4.56864 4.65532ZM4.86978 1.50892C4.35588 1.80916 4.26552 2.96224 4.63452 4.45858C5.17956 4.33996 5.76456 4.25122 6.3753 4.19452C6.73836 3.67378 7.11654 3.1939 7.50102 2.76622C6.78984 2.0653 6.12348 1.61746 5.56998 1.46914C5.28324 1.39264 5.04672 1.40596 4.86978 1.50892ZM8.8755 4.32196C8.87406 4.32196 8.87262 4.32196 8.87118 4.32196C8.2761 4.29298 7.72404 4.29298 7.12896 4.32196C7.09188 4.32286 7.06164 4.30504 7.04526 4.27462C7.02888 4.24402 7.0314 4.20676 7.0521 4.17868C7.33776 3.79078 7.63422 3.42628 7.93338 3.09544C7.96758 3.05782 8.03274 3.05782 8.06694 3.09544C8.36592 3.4261 8.66238 3.7906 8.94822 4.17868C8.96874 4.20658 8.97144 4.24402 8.95506 4.27462C8.93904 4.30378 8.90844 4.32196 8.8755 4.32196ZM7.99998 4.12C8.22354 4.12 8.45484 4.12468 8.68992 4.13386C8.46456 3.8356 8.23308 3.55282 7.99998 3.29074C7.76688 3.553 7.5354 3.8356 7.31004 4.13386C7.54512 4.12468 7.77642 4.12 7.99998 4.12Z" fill="#1F212B"/>
</svg>
