<svg width="18" height="18" viewBox="0 0 18 18" fill="none" xmlns="http://www.w3.org/2000/svg">
<path d="M16.5002 4.16624V13.8337C16.5002 14.31 16.2039 14.7337 15.7577 14.8912L12.4502 16.4437L12.7502 12.375V5.62499L12.4502 1.55624L15.7577 3.10874C16.2039 3.26624 16.5002 3.68999 16.5002 4.16624Z" fill="#29B6F6"/>
<path d="M3.37503 12.711L12.75 5.625V2.00738C12.75 1.55813 12.1943 1.34813 11.8969 1.68488L1.74678 10.9646C1.40928 11.2759 1.42841 11.8148 1.78691 12.1016C1.78691 12.1016 2.28341 12.5636 2.46303 12.6919C2.73903 12.8888 3.10166 12.9113 3.37503 12.711Z" fill="#0277BD"/>
<path d="M3.37503 5.289L12.75 12.375V15.9926C12.75 16.4419 12.1943 16.6519 11.8969 16.3151L1.74678 7.03537C1.40928 6.72412 1.42841 6.18525 1.78691 5.89837C1.78691 5.89837 2.28341 5.43637 2.46303 5.30812C2.73903 5.11125 3.10166 5.08875 3.37503 5.289Z" fill="#0288D1"/>
</svg>
